<svg width="25" height="25" viewBox="0 0 25 25" fill="none" xmlns="http://www.w3.org/2000/svg">
  <path
    fill-rule="evenodd"
    clip-rule="evenodd"
    d="M14.2539 12.6571C14.682 12.2666 15.3398 12.2754 15.7573 12.6772L22.0398 18.7241C22.4773 19.1452 22.4906 19.8412 22.0695 20.2787C21.6484 20.7162 20.9524 20.7295 20.5149 20.3084L14.9747 14.9759L10.6313 18.9381C10.1991 19.3324 9.53371 19.3191 9.11755 18.9078L7.52361 17.3326L4.99783 19.7594C4.55998 20.18 3.86399 20.1661 3.44331 19.7283C3.02262 19.2904 3.03654 18.5944 3.4744 18.1737L6.7727 15.0048C7.20256 14.5918 7.88323 14.5966 8.30722 15.0156L9.92064 16.61L14.2539 12.6571Z"
    fill="#E5E5E5"
  />
  <path
    d="M2.58696 23.3643C2.58696 22.7571 3.07919 22.2649 3.6864 22.2649C4.2936 22.2649 4.78583 22.7571 4.78583 23.3643C4.78583 23.9715 4.2936 24.4637 3.6864 24.4637C3.07919 24.4637 2.58696 23.9715 2.58696 23.3643Z"
    fill="#E5E5E5"
  />
  <path
    d="M2.58696 13.4694C2.58696 12.8622 3.07919 12.3699 3.6864 12.3699C4.2936 12.3699 4.78583 12.8622 4.78583 13.4694C4.78583 14.0766 4.2936 14.5688 3.6864 14.5688C3.07919 14.5688 2.58696 14.0766 2.58696 13.4694Z"
    fill="#E5E5E5"
  />
  <path
    d="M6.9847 23.3643C6.9847 22.7571 7.47694 22.2649 8.08414 22.2649C8.69134 22.2649 9.18357 22.7571 9.18357 23.3643C9.18357 23.9715 8.69134 24.4637 8.08414 24.4637C7.47694 24.4637 6.9847 23.9715 6.9847 23.3643Z"
    fill="#E5E5E5"
  />
  <path
    d="M11.3824 23.3643C11.3824 22.7571 11.8747 22.2649 12.4819 22.2649C13.0891 22.2649 13.5813 22.7571 13.5813 23.3643C13.5813 23.9715 13.0891 24.4637 12.4819 24.4637C11.8747 24.4637 11.3824 23.9715 11.3824 23.3643Z"
    fill="#E5E5E5"
  />
  <path
    d="M15.7802 23.3643C15.7802 22.7571 16.2724 22.2649 16.8796 22.2649C17.4868 22.2649 17.9791 22.7571 17.9791 23.3643C17.9791 23.9715 17.4868 24.4637 16.8796 24.4637C16.2724 24.4637 15.7802 23.9715 15.7802 23.3643Z"
    fill="#E5E5E5"
  />
  <path
    d="M20.1779 23.3643C20.1779 22.7571 20.6702 22.2649 21.2774 22.2649C21.8846 22.2649 22.3768 22.7571 22.3768 23.3643C22.3768 23.9715 21.8846 24.4637 21.2774 24.4637C20.6702 24.4637 20.1779 23.9715 20.1779 23.3643Z"
    fill="#E5E5E5"
  />
  <path
    d="M20.1779 14.5688C20.1779 13.9616 20.6702 13.4694 21.2774 13.4694C21.8846 13.4694 22.3768 13.9616 22.3768 14.5688C22.3768 15.176 21.8846 15.6682 21.2774 15.6682C20.6702 15.6682 20.1779 15.176 20.1779 14.5688Z"
    fill="#E5E5E5"
  />
  <path
    d="M20.1779 10.1711C20.1779 9.56387 20.6702 9.07163 21.2774 9.07163C21.8846 9.07163 22.3768 9.56387 22.3768 10.1711C22.3768 10.7783 21.8846 11.2705 21.2774 11.2705C20.6702 11.2705 20.1779 10.7783 20.1779 10.1711Z"
    fill="#E5E5E5"
  />
  <path
    d="M6.9847 5.77332C6.9847 5.16612 7.47694 4.67389 8.08414 4.67389C8.69134 4.67389 9.18357 5.16612 9.18357 5.77332C9.18357 6.38053 8.69134 6.87276 8.08414 6.87276C7.47694 6.87276 6.9847 6.38053 6.9847 5.77332Z"
    fill="#E5E5E5"
  />
  <path
    d="M2.58696 5.77332C2.58696 5.16612 3.07919 4.67389 3.6864 4.67389C4.2936 4.67389 4.78583 5.16612 4.78583 5.77332C4.78583 6.38053 4.2936 6.87276 3.6864 6.87276C3.07919 6.87276 2.58696 6.38053 2.58696 5.77332Z"
    fill="#E5E5E5"
  />
  <path
    d="M2.58696 9.62135C2.58696 9.01415 3.07919 8.52191 3.6864 8.52191C4.2936 8.52191 4.78583 9.01415 4.78583 9.62135C4.78583 10.2286 4.2936 10.7208 3.6864 10.7208C3.07919 10.7208 2.58696 10.2286 2.58696 9.62135Z"
    fill="#E5E5E5"
  />
  <path
    d="M2.62299 18.9726V23.4126L4.82186 23.2676V20.0056L5.45011 19.2082L4.82186 17.3234L4.07279 17.6134L2.62299 18.9726Z"
    fill="#E5E5E5"
  />
  <path d="M21.398 22.2527H4.7252L3.63785 22.6514V24.4999H21.398V22.2527Z" fill="#E5E5E5" />
  <path
    d="M20.5285 22.9052V20.1506V19.5707L22.4133 19.3532V23.2677L20.5285 22.9052Z"
    fill="#E5E5E5"
  />
  <path
    d="M10.9348 5.71739C10.9348 6.15565 11.1748 6.55217 11.5661 6.75043L13.1365 7.5487C13.6478 7.80957 14.06 8.22174 14.3209 8.73304L15.1191 10.3035C15.3174 10.6948 15.7139 10.9348 16.1522 10.9348C16.5904 10.9348 16.987 10.6948 17.1852 10.3035L17.9835 8.73304C18.2443 8.22174 18.6565 7.80957 19.1678 7.5487L20.7383 6.75043C21.1296 6.55217 21.3696 6.15565 21.3696 5.71739C21.3696 5.27913 21.1296 4.88261 20.7383 4.68435L19.1678 3.88609C18.6565 3.62522 18.2443 3.21304 17.9835 2.70174L17.1852 1.1313C16.987 0.74 16.5904 0.5 16.1522 0.5C15.7139 0.5 15.3174 0.74 15.1191 1.1313L14.3209 2.70174C14.06 3.21304 13.6478 3.62522 13.1365 3.88609L11.5661 4.68435C11.1748 4.88261 10.9348 5.27913 10.9348 5.71739ZM13.8461 5.27913C14.6548 4.86696 15.3017 4.22 15.7139 3.4113L16.1522 2.55043L16.5904 3.4113C17.0026 4.22 17.6496 4.86696 18.4583 5.27913L19.3191 5.71739L18.4583 6.15565C17.6496 6.56783 17.0026 7.21478 16.5904 8.02348L16.1522 8.88435L15.7139 8.02348C15.3017 7.21478 14.6548 6.56783 13.8461 6.15565L12.9852 5.71739L13.8461 5.27913Z"
    fill="#E5E5E5"
  />
</svg>
