<svg width="60" height="63" viewBox="0 0 60 63" fill="none" xmlns="http://www.w3.org/2000/svg">
<path d="M53.5 19.0374H50V15.5374C50 15.1396 49.842 14.7581 49.5607 14.4768C49.2794 14.1955 48.8978 14.0374 48.5 14.0374C48.1022 14.0374 47.7206 14.1955 47.4393 14.4768C47.158 14.7581 47 15.1396 47 15.5374V19.0374H18.5C18.1022 19.0374 17.7206 19.1955 17.4393 19.4768C17.158 19.7581 17 20.1396 17 20.5374V49.0374H13.5C13.1022 49.0374 12.7206 49.1955 12.4393 49.4768C12.158 49.7581 12 50.1396 12 50.5374C12 50.9352 12.158 51.3168 12.4393 51.5981C12.7206 51.8794 13.1022 52.0374 13.5 52.0374H17V55.5374C17 55.9352 17.158 56.3168 17.4393 56.5981C17.7206 56.8794 18.1022 57.0374 18.5 57.0374C18.8978 57.0374 19.2794 56.8794 19.5607 56.5981C19.842 56.3168 20 55.9352 20 55.5374V52.0374H48.5C48.8978 52.0374 49.2794 51.8794 49.5607 51.5981C49.842 51.3168 50 50.9352 50 50.5374V22.0374H53.5C53.8978 22.0374 54.2794 21.8794 54.5607 21.5981C54.842 21.3168 55 20.9352 55 20.5374C55 20.1396 54.842 19.7581 54.5607 19.4768C54.2794 19.1955 53.8978 19.0374 53.5 19.0374ZM47 49.0374H20V22.0374H47V49.0374ZM21.5 12.0374C17.9212 12.0427 14.4905 13.4667 11.9599 15.9973C9.42931 18.5279 8.00529 21.9586 8 25.5374C8 25.9352 7.84196 26.3168 7.56066 26.5981C7.27936 26.8794 6.89782 27.0374 6.5 27.0374C6.10218 27.0374 5.72064 26.8794 5.43934 26.5981C5.15804 26.3168 5 25.9352 5 25.5374C5.00529 21.163 6.74538 16.9692 9.83858 13.876C12.9318 10.7828 17.1256 9.04271 21.5 9.03742L22.94 9.10742L21.44 7.59742C21.2926 7.46009 21.1744 7.29449 21.0924 7.11049C21.0105 6.92649 20.9664 6.72787 20.9628 6.52646C20.9593 6.32506 20.9963 6.125 21.0718 5.93822C21.1472 5.75145 21.2595 5.58178 21.4019 5.43934C21.5444 5.2969 21.714 5.18461 21.9008 5.10917C22.0876 5.03373 22.2876 4.99668 22.489 5.00023C22.6904 5.00379 22.8891 5.04787 23.0731 5.12985C23.2571 5.21184 23.4227 5.33004 23.56 5.47742L27.56 9.47742C27.7003 9.616 27.8117 9.78106 27.8877 9.96302C27.9637 10.145 28.0029 10.3402 28.0029 10.5374C28.0029 10.7346 27.9637 10.9299 27.8877 11.1118C27.8117 11.2938 27.7003 11.4588 27.56 11.5974L23.56 15.5974C23.2787 15.8783 22.8975 16.0361 22.5 16.0361C22.1025 16.0361 21.7213 15.8783 21.44 15.5974C21.2997 15.4588 21.1883 15.2938 21.1123 15.1118C21.0363 14.9299 20.9971 14.7346 20.9971 14.5374C20.9971 14.3402 21.0363 14.145 21.1123 13.963C21.1883 13.7811 21.2997 13.616 21.44 13.4774L22.88 12.0374H21.5Z" fill="white"/>
</svg>
