<svg width="25" height="24" viewBox="0 0 25 24" fill="none" xmlns="http://www.w3.org/2000/svg">
  <g id="Enlarge Image">
    <path
      id="Vector"
      d="M20.6001 5.41387C20.6001 5.37343 20.5757 5.33697 20.5384 5.32149C20.501 5.30602 20.458 5.31458 20.4294 5.34318L19.1364 6.63623C18.785 6.98772 18.2151 6.98774 17.8636 6.63628C17.5122 6.28482 17.5121 5.71497 17.8636 5.36349L19.1564 4.07061C19.185 4.04201 19.1935 3.999 19.178 3.96163C19.1626 3.92427 19.1261 3.8999 19.0856 3.89991L16.5 3.9C16.003 3.90002 15.6 3.49709 15.6 3.00004C15.6 2.50298 16.0029 2.10002 16.4999 2.1L21.4998 2.09982C21.9968 2.0998 22.3998 2.50268 22.3998 2.99971L22.4004 7.974C22.4005 8.47105 21.9976 8.87404 21.5005 8.8741C21.0034 8.87416 20.6005 8.47126 20.6004 7.9742L20.6001 5.41387ZM17.6957 12.741C17.7056 12.7709 17.7291 12.7943 17.7589 12.8043L21.7846 14.1462C22.1521 14.2687 22.4 14.6126 22.4 15C22.4 15.3874 22.1521 15.7313 21.7846 15.8538L17.7589 17.1957C17.7291 17.2056 17.7056 17.2291 17.6957 17.2589L16.3538 21.2846C16.2313 21.6521 15.8874 21.9 15.5 21.9C15.1126 21.9 14.7687 21.6521 14.6462 21.2846L13.3043 17.2589C13.2943 17.2291 13.2709 17.2056 13.241 17.1957L9.21539 15.8538C8.84788 15.7313 8.59999 15.3874 8.59999 15C8.59999 14.6126 8.84788 14.2687 9.21539 14.1462L13.241 12.8043C13.2709 12.7943 13.2943 12.7709 13.3043 12.741L14.6462 8.71538C14.7687 8.34788 15.1126 8.09999 15.5 8.09999C15.8874 8.09999 16.2313 8.34788 16.3538 8.71538L17.6957 12.741ZM15.5949 12.1306C15.5812 12.0898 15.543 12.0623 15.5 12.0623C15.4569 12.0623 15.4187 12.0898 15.4051 12.1306L14.8538 13.7846C14.7642 14.0533 14.5533 14.2642 14.2846 14.3538L12.6306 14.9051C12.5898 14.9187 12.5623 14.9569 12.5623 15C12.5623 15.043 12.5898 15.0812 12.6306 15.0949L14.2846 15.6462C14.5533 15.7358 14.7642 15.9466 14.8538 16.2154L15.4051 17.8693C15.4187 17.9102 15.4569 17.9377 15.5 17.9377C15.543 17.9377 15.5812 17.9102 15.5949 17.8693L16.1462 16.2154C16.2358 15.9466 16.4466 15.7358 16.7154 15.6462L18.3693 15.0949C18.4102 15.0812 18.4377 15.043 18.4377 15C18.4377 14.9569 18.4102 14.9187 18.3693 14.9051L16.7154 14.3538C16.4466 14.2642 16.2358 14.0533 16.1462 13.7846L15.5949 12.1306ZM4.4003 18.5859C4.4003 18.6264 4.42467 18.6628 4.46203 18.6783C4.4994 18.6938 4.54241 18.6852 4.57101 18.6566L5.86397 17.3636C6.21542 17.0121 6.78527 17.0121 7.13676 17.3635C7.48824 17.715 7.48827 18.2848 7.13681 18.6363L5.84403 19.9292C5.81543 19.9578 5.80688 20.0008 5.82236 20.0382C5.83784 20.0755 5.8743 20.0999 5.91475 20.0999L8.50039 20.0998C8.99744 20.0998 9.4004 20.5027 9.40042 20.9998C9.40044 21.4968 8.99751 21.8998 8.50045 21.8998L3.50061 21.9C3.00358 21.9 2.60063 21.4971 2.60057 21.0001L2.6 16.0258C2.59994 15.5288 3.00284 15.1258 3.4999 15.1257C3.99695 15.1256 4.39994 15.5285 4.4 16.0256L4.4003 18.5859ZM9.25447 6.18227C9.26442 6.21213 9.28785 6.23556 9.31771 6.24552L11.6581 7.02565C11.8623 7.09371 12 7.28477 12 7.49999C12 7.71521 11.8623 7.90627 11.6581 7.97433L9.31771 8.75446C9.28785 8.76442 9.26442 8.78785 9.25447 8.81771L8.47433 11.1581C8.40628 11.3623 8.21521 11.5 7.99999 11.5C7.78478 11.5 7.59371 11.3623 7.52565 11.1581L6.74552 8.81771C6.73557 8.78785 6.71213 8.76442 6.68227 8.75446L4.34188 7.97433C4.13771 7.90627 3.99999 7.71521 3.99999 7.49999C3.99999 7.28477 4.13771 7.09371 4.34188 7.02565L6.68227 6.24552C6.71213 6.23556 6.73557 6.21213 6.74552 6.18227L7.52565 3.84188C7.59371 3.63771 7.78478 3.49999 7.99999 3.49999C8.21521 3.49999 8.40628 3.63771 8.47433 3.84188L9.25447 6.18227Z"
      fill="#E5E5E5"
      stroke="black"
      stroke-width="0.2"
      stroke-linecap="round"
      stroke-linejoin="round"
    />
  </g>
</svg>
