<svg width="24" height="24" viewBox="0 0 24 24" fill="none" xmlns="http://www.w3.org/2000/svg">
<path d="M5.83 13.6451L5.89 13.5251C6.14 13.0401 6.535 12.6451 7.02 12.3951L7.14 12.3351C7.615 12.0951 7.615 11.4151 7.14 11.1701L7.02 11.1101C6.535 10.8601 6.14 10.4651 5.89 9.98013L5.83 9.86013C5.59 9.38513 4.91 9.38513 4.665 9.86013L4.605 9.98013C4.355 10.4651 3.96 10.8601 3.475 11.1101L3.355 11.1701C2.88 11.4101 2.88 12.0901 3.355 12.3351L3.475 12.3951C3.96 12.6451 4.355 13.0401 4.605 13.5251L4.665 13.6451C4.905 14.1201 5.585 14.1201 5.83 13.6451Z" fill="white"/>
<path d="M20.145 17.6701L20.025 17.6101C19.54 17.3601 19.145 16.9651 18.895 16.4801L18.835 16.3601C18.595 15.8851 17.915 15.8851 17.67 16.3601L17.61 16.4801C17.36 16.9651 16.965 17.3601 16.48 17.6101L16.36 17.6701C15.885 17.9101 15.885 18.5901 16.36 18.8351L16.48 18.8951C16.965 19.1451 17.36 19.5401 17.61 20.0251L17.67 20.1451C17.91 20.6201 18.59 20.6201 18.835 20.1451L18.895 20.0251C19.145 19.5401 19.54 19.1451 20.025 18.8951L20.145 18.8351C20.62 18.5951 20.62 17.9151 20.145 17.6701Z" fill="white"/>
<path d="M6.21 7.39013L6.37 7.47013C6.87 7.72513 7.27 8.12513 7.525 8.62513L7.605 8.78513C7.88 9.32513 8.43 9.66013 9.035 9.66013C9.64 9.66013 10.19 9.32513 10.47 8.78513L10.55 8.62513C10.805 8.12513 11.205 7.72513 11.705 7.47013L11.865 7.39013C12.405 7.11513 12.74 6.56513 12.74 5.96013C12.74 5.35513 12.405 4.80513 11.865 4.52513L11.705 4.44513C11.205 4.19013 10.805 3.79013 10.55 3.29013L10.47 3.13013C10.195 2.59013 9.645 2.25513 9.035 2.25513C8.425 2.25513 7.88 2.59013 7.6 3.13013L7.52 3.29013C7.265 3.79013 6.865 4.19013 6.365 4.44513L6.205 4.52513C5.665 4.80013 5.33 5.35013 5.33 5.96013C5.33 6.57013 5.665 7.11513 6.205 7.39513L6.21 7.39013ZM6.89 5.86013L7.05 5.78013C7.835 5.38013 8.46 4.75513 8.86 3.97013L8.94 3.81013C8.94 3.81013 8.97 3.75013 9.035 3.75013C9.1 3.75013 9.125 3.79013 9.13 3.81013L9.21 3.97013C9.61 4.75513 10.235 5.38013 11.02 5.78013L11.18 5.86013C11.18 5.86013 11.24 5.89013 11.24 5.95513C11.24 6.02013 11.195 6.04513 11.18 6.05013L11.02 6.13013C10.235 6.53013 9.61 7.15513 9.21 7.94013L9.13 8.10013C9.13 8.10013 9.1 8.16013 9.035 8.16013C8.97 8.16013 8.945 8.11513 8.94 8.10013L8.86 7.94013C8.46 7.15513 7.835 6.53013 7.05 6.13013L6.89 6.05013C6.89 6.05013 6.83 6.02013 6.83 5.95513C6.83 5.89013 6.875 5.86513 6.89 5.86013Z" fill="white"/>
<path d="M21.145 6.32513L20.175 5.35513C19.785 4.96513 19.265 4.75013 18.715 4.75013C18.165 4.75013 17.645 4.96513 17.255 5.35513L6.87 15.7401C6.87 15.7401 6.86 15.7551 6.855 15.7651C6.795 15.8301 6.745 15.9001 6.71 15.9801V15.9901L5.265 19.4351C5.04 19.9701 5.165 20.5801 5.58 20.9901C5.85 21.2551 6.205 21.3951 6.57 21.3951C6.76 21.3951 6.955 21.3551 7.14 21.2751L10.515 19.7951L10.535 19.7851C10.615 19.7501 10.68 19.7001 10.74 19.6451C10.745 19.6401 10.755 19.6351 10.765 19.6301L21.15 9.24513C21.54 8.85513 21.755 8.33513 21.755 7.78513C21.755 7.23513 21.54 6.71513 21.15 6.32513H21.145ZM10.23 18.0401L8.46 16.2701L16.24 8.49013L18.01 10.2601L10.23 18.0401ZM20.085 8.18513L19.07 9.20013L17.3 7.43013L18.315 6.41513C18.525 6.20013 18.9 6.20013 19.115 6.41513L20.085 7.38513C20.19 7.49013 20.25 7.63513 20.25 7.78513C20.25 7.93513 20.19 8.07513 20.085 8.18513Z" fill="white"/>
</svg>
