<svg width="24" height="24" viewBox="0 0 24 24" fill="none" xmlns="http://www.w3.org/2000/svg">
<path d="M20.4375 6.65625V6.5625C20.4375 4.90564 19.0944 3.5625 17.4375 3.5625H17.3438M20.4375 17.4375C20.4375 19.0944 19.0944 20.4375 17.4375 20.4375H17.3438M6.5625 20.4375C4.90564 20.4375 3.5625 19.0944 3.5625 17.4375M3.5625 6.65625V6.5625C3.5625 4.90564 4.90564 3.5625 6.5625 3.5625" stroke="#E5E5E5" stroke-width="1.6" stroke-linecap="round"/>
<path d="M12 11.0625C13.3462 11.0625 14.4375 10.0132 14.4375 8.71875C14.4375 7.42433 13.3462 6.375 12 6.375C10.6538 6.375 9.5625 7.42433 9.5625 8.71875C9.5625 10.0132 10.6538 11.0625 12 11.0625Z" stroke="#E5E5E5" stroke-width="1.6"/>
<path d="M7.3125 13.8932C7.3125 12.5848 8.68187 11.7275 9.85882 12.2992L10.2274 12.4782C11.3466 13.0218 12.6534 13.0218 13.7726 12.4782L14.1412 12.2992C15.3181 11.7275 16.6875 12.5848 16.6875 13.8932C16.6875 15.8506 15.1007 17.4374 13.1433 17.4374H10.8567C8.89929 17.4374 7.3125 15.8506 7.3125 13.8932Z" stroke="#E5E5E5" stroke-width="1.6"/>
</svg>
