<svg width="25" height="25" viewBox="0 0 25 25" fill="none" xmlns="http://www.w3.org/2000/svg">
<path d="M16.1118 3.6459C16.018 3.55217 15.8908 3.49951 15.7583 3.49951C15.6257 3.49951 15.4985 3.55217 15.4048 3.6459L14.6978 4.3539C14.604 4.44767 14.5514 4.57482 14.5514 4.7074C14.5514 4.83999 14.604 4.96714 14.6978 5.0609L17.1368 7.4999H11.5508C9.82687 7.4999 8.17357 8.18472 6.95458 9.40371C5.7356 10.6227 5.05078 12.276 5.05078 13.9999C5.05078 15.7238 5.7356 17.3771 6.95458 18.5961C8.17357 19.8151 9.82687 20.4999 11.5508 20.4999H18.8278L18.2918 18.4999H11.5508C10.3573 18.4999 9.21271 18.0258 8.3688 17.1819C7.52488 16.338 7.05078 15.1934 7.05078 13.9999C7.05078 12.8064 7.52488 11.6618 8.3688 10.8179C9.21271 9.97401 10.3573 9.4999 11.5508 9.4999H17.1368L14.6968 11.9399C14.6033 12.0336 14.5509 12.1606 14.5509 12.2929C14.5509 12.4252 14.6033 12.5522 14.6968 12.6459L15.4048 13.3539C15.4985 13.4476 15.6257 13.5003 15.7583 13.5003C15.8908 13.5003 16.018 13.4476 16.1118 13.3539L20.6118 8.8539C20.6583 8.80746 20.6953 8.75228 20.7205 8.69154C20.7457 8.63079 20.7587 8.56567 20.7587 8.4999C20.7587 8.43414 20.7457 8.36902 20.7205 8.30827C20.6953 8.24753 20.6583 8.19235 20.6118 8.1459L16.1118 3.6459Z" fill="white"/>
</svg>
