<svg width="24" height="24" viewBox="0 0 24 24" fill="none" xmlns="http://www.w3.org/2000/svg">
<g clip-path="url(#clip0_65_16723)">
<path d="M18.4399 21.5H14.2499L15.3999 20.35L21.2099 14.54C21.6799 14.07 21.9399 13.44 21.9399 12.77C21.9399 12.1 21.6799 11.47 21.2099 11L17.4099 7.19997C16.9499 6.72997 16.2999 6.46997 15.6399 6.46997C14.9699 6.46997 14.3399 6.72997 13.8699 7.19997L6.63991 14.43C6.16991 14.9 5.90991 15.53 5.90991 16.2C5.90991 16.87 6.16991 17.5 6.63991 17.97L10.4399 21.77C10.9099 22.24 11.5399 22.5 12.2099 22.5H18.4399C18.7199 22.5 18.9399 22.28 18.9399 22C18.9399 21.72 18.7199 21.5 18.4399 21.5ZM14.5899 7.91997C14.8699 7.63997 15.2499 7.47997 15.6499 7.47997C16.0399 7.47997 16.4299 7.63997 16.7099 7.91997L20.5099 11.72C20.7899 12 20.9499 12.39 20.9499 12.78C20.9499 13.17 20.7899 13.56 20.5099 13.84L15.0499 19.3L9.12991 13.38L14.5899 7.91997ZM7.35991 17.26C7.07991 16.98 6.91991 16.59 6.91991 16.2C6.91991 15.81 7.07991 15.42 7.35991 15.14L8.41991 14.08L14.3399 20L13.2799 21.06C12.7199 21.62 11.7199 21.62 11.1599 21.06L7.35991 17.26Z" fill="#E5E5E5" stroke="#E5E5E5" stroke-width="0.6"/>
<path d="M22.4399 21.5H20.4399C20.1599 21.5 19.9399 21.72 19.9399 22C19.9399 22.28 20.1599 22.5 20.4399 22.5H22.4399C22.7199 22.5 22.9399 22.28 22.9399 22C22.9399 21.72 22.7199 21.5 22.4399 21.5Z" fill="#E5E5E5" stroke="#E5E5E5" stroke-width="0.6"/>
<path d="M6.46006 10.3099C6.65006 10.3099 6.82006 10.1999 6.91006 10.0299L8.12006 7.5699L10.5801 6.3499C10.7501 6.2699 10.8601 6.0899 10.8601 5.8999C10.8601 5.7099 10.7501 5.5399 10.5801 5.4499L8.12006 4.2399L6.91006 1.7799C6.74006 1.4399 6.18006 1.4399 6.01006 1.7799L4.80006 4.2399L2.34006 5.4499C2.17006 5.5299 2.06006 5.7099 2.06006 5.8999C2.06006 6.0899 2.17006 6.2599 2.34006 6.3499L4.80006 7.5699L6.01006 10.0299C6.09006 10.1999 6.27006 10.3099 6.46006 10.3099ZM5.39006 6.7499L3.68006 5.9099L5.39006 5.0699C5.49006 5.0199 5.57006 4.9399 5.62006 4.8399L6.46006 3.1299L7.30006 4.8399C7.35006 4.9399 7.43006 5.0199 7.53006 5.0699L9.24006 5.9099L7.53006 6.7499C7.43006 6.7999 7.35006 6.8799 7.30006 6.9799L6.46006 8.6899L5.62006 6.9799C5.57006 6.8799 5.49006 6.7999 5.39006 6.7499Z" fill="#E5E5E5" stroke="#E5E5E5" stroke-width="0.6"/>
</g>
<defs>
<clipPath id="clip0_65_16723">
<rect width="24" height="24" fill="white"/>
</clipPath>
</defs>
</svg>
