<svg width="23" height="23" viewBox="0 0 23 23" fill="none" xmlns="http://www.w3.org/2000/svg">
<path d="M0.408178 5.25212L0.409621 5.24778M0.408178 5.25212L0.413244 5.23691M0.408178 5.25212L0.409621 5.24778M0.408178 5.25212L0.414636 5.23274M0.409621 5.24778L0.413244 5.23691M0.409621 5.24778L0.413244 5.23691M0.413244 5.23691L0.414636 5.23274M0.414636 5.23274L0.595494 4.68985L0.414636 5.23274ZM22.1293 5.13692L22.1357 5.13867C22.1356 5.13865 22.1399 5.14007 22.1449 5.14673C22.1499 5.15323 22.151 5.15866 22.151 5.16267C22.151 5.17807 22.1459 5.19002 22.1411 5.19658C22.1405 5.19728 22.1401 5.19784 22.1397 5.19829L22.1293 5.20123L20.8253 5.57182L20.8242 5.57211C19.5632 5.93218 18.5838 6.88985 18.2201 8.16212L18.2198 8.16313L17.8533 9.45158C17.8489 9.46318 17.8439 9.46719 17.8423 9.46844C17.8416 9.46895 17.8407 9.46954 17.8395 9.47016C17.8383 9.4708 17.8367 9.47147 17.8347 9.47212C17.831 9.47335 17.8232 9.47534 17.8099 9.47534C17.7874 9.47534 17.7755 9.46971 17.771 9.46698L17.7708 9.46657L17.4 8.16312L17.3989 8.15928C17.036 6.90612 16.0607 5.93334 14.7956 5.57211L14.7946 5.57182L13.4905 5.20123L13.4905 5.2012L13.4841 5.19945C13.4841 5.19944 13.4799 5.19796 13.4749 5.19139C13.4699 5.18489 13.4688 5.17945 13.4688 5.17545C13.4688 5.16005 13.4739 5.1481 13.4788 5.14154C13.4793 5.14084 13.4798 5.14028 13.4801 5.13983L13.4905 5.13689L14.7946 4.7663L14.7956 4.76601C16.0567 4.40594 17.036 3.44827 17.3997 2.176L17.4 2.17499L17.7664 0.887209C17.7703 0.877245 17.7778 0.866788 17.7882 0.858897C17.7989 0.850828 17.8063 0.85 17.8099 0.85C17.8135 0.85 17.821 0.850865 17.8316 0.858924C17.8421 0.86681 17.8495 0.877258 17.8535 0.887217L18.2198 2.175L18.2209 2.17884C18.5839 3.432 19.5591 4.40478 20.8242 4.76601L20.8253 4.7663L22.1293 5.13689L22.1293 5.13692ZM6.74178 8.74547L18.0446 15.378L18.0575 15.4038L18.2752 15.5314C18.3877 15.5972 18.3677 15.7529 18.2483 15.7921L18.2452 15.7931L13.2075 17.4672L13.1986 17.4701L13.1898 17.4733C12.9084 17.5737 12.5977 17.7502 12.3603 18.0386L8.97724 22.0961C8.9769 22.0965 8.97656 22.0969 8.97622 22.0972C8.95092 22.1268 8.92778 22.1384 8.90704 22.1443C8.88201 22.1514 8.84879 22.1528 8.81285 22.1431C8.77683 22.1333 8.74961 22.1156 8.73274 22.0981C8.71889 22.0837 8.70652 22.0644 8.7006 22.0301C8.70056 22.0299 8.70052 22.0297 8.70048 22.0295L6.51448 8.89512L6.51408 8.89277C6.50788 8.85616 6.51363 8.83299 6.5217 8.81524C6.53145 8.79378 6.5502 8.76963 6.57868 8.7501C6.60711 8.7306 6.63614 8.72194 6.65942 8.72061C6.67855 8.71952 6.703 8.72237 6.73671 8.74247L6.7367 8.74248L6.74178 8.74547ZM3.6415 4.03074C3.93114 4.32023 4.27253 4.52378 4.65736 4.69105C4.27683 4.85818 3.93904 5.06117 3.65109 5.34896C3.36368 5.63621 3.16077 5.97311 2.99371 6.35257C2.82969 5.97383 2.62823 5.63664 2.34039 5.34896C2.05074 5.05947 1.70936 4.85593 1.32453 4.68865C1.70506 4.52153 2.04285 4.31853 2.3308 4.03074C2.61821 3.74349 2.82112 3.40659 2.98818 3.02713C3.1522 3.40587 3.35366 3.74306 3.6415 4.03074Z" stroke="#E5E5E5" stroke-width="1.7"/>
</svg>
