<svg width="25" height="25" viewBox="0 0 25 25" fill="none" xmlns="http://www.w3.org/2000/svg">
<path d="M9.31976 3.6459C9.41353 3.55217 9.54068 3.49951 9.67326 3.49951C9.80584 3.49951 9.933 3.55217 10.0268 3.6459L10.7338 4.3539C10.8275 4.44767 10.8802 4.57482 10.8802 4.7074C10.8802 4.83999 10.8275 4.96714 10.7338 5.0609L8.29376 7.4999H13.8798C15.6037 7.4999 17.257 8.18472 18.4759 9.40371C19.6949 10.6227 20.3797 12.276 20.3797 13.9999C20.3797 15.7238 19.6949 17.3771 18.4759 18.5961C17.257 19.8151 15.6037 20.4999 13.8798 20.4999H6.60377L7.13877 18.4999H13.8798C15.0732 18.4999 16.2178 18.0258 17.0617 17.1819C17.9056 16.338 18.3798 15.1934 18.3798 13.9999C18.3798 12.8064 17.9056 11.6618 17.0617 10.8179C16.2178 9.97401 15.0732 9.4999 13.8798 9.4999H8.29376L10.7338 11.9399C10.8272 12.0336 10.8797 12.1606 10.8797 12.2929C10.8797 12.4252 10.8272 12.5522 10.7338 12.6459L10.0268 13.3539C9.98032 13.4005 9.92514 13.4374 9.8644 13.4626C9.80365 13.4878 9.73853 13.5008 9.67276 13.5008C9.607 13.5008 9.54187 13.4878 9.48113 13.4626C9.42038 13.4374 9.36521 13.4005 9.31876 13.3539L4.81877 8.8539C4.77221 8.80746 4.73526 8.75228 4.71006 8.69154C4.68485 8.63079 4.67188 8.56567 4.67188 8.4999C4.67188 8.43414 4.68485 8.36902 4.71006 8.30827C4.73526 8.24753 4.77221 8.19235 4.81877 8.1459L9.31976 3.6459Z" fill="white"/>
</svg>
